<?xml version="1.0" encoding="UTF-8"?>
<svg width="457px" height="526px"  version="1.1" xmlns="http://www.w3.org/2000/svg" xmlns:xlink="http://www.w3.org/1999/xlink">
    <!-- Generator: Sketch 52.5 (67469) - http://www.bohemiancoding.com/sketch -->
    <title>Group 16 Copy 2</title>
    <desc>Created with Sketch.</desc>
    <defs>
        <polygon id="path-1" points="0 0.0241721973 371.611477 0.0241721973 371.611477 446.999598 0 446.999598"></polygon>
        <path d="M165.396338,0.180633803 L173.837958,8.62024648 C176.651831,11.4341197 179.463697,14.247993 182.27757,17.0598592 L186.498129,21.280669 L199.158803,33.9430986 C201.972676,36.7549648 204.784542,39.568838 207.600423,42.3827113 C210.412289,45.1965845 213.226162,48.0104577 216.040035,50.824331 C218.853908,53.6382042 221.665775,56.4500704 224.481655,59.2639437 C227.293521,62.0778169 230.107394,64.8916901 232.921268,67.7035563 C235.735141,70.5174296 238.547007,73.3313028 241.362887,76.1451761 C244.174754,78.9590493 246.988627,81.7729225 249.8025,84.5867958 C252.614366,87.398662 255.430246,90.2125352 258.242113,93.0264085 C261.055986,95.8382746 263.869859,98.6521479 266.683732,101.466021 C269.495599,104.279894 272.311479,107.093768 275.123345,109.907641 C277.937218,112.721514 280.751092,115.53338 283.562958,118.347254 C280.807289,121.102923 278.05162,123.860599 275.295951,126.616268 L242.221901,159.690317 C239.466232,162.445986 236.706549,165.203662 233.95088,167.959331 C231.195211,170.717007 228.439542,173.472676 225.683873,176.228345 C222.926197,178.984014 220.170528,181.74169 217.414859,184.497359 L200.876831,201.035387 C198.121162,203.791056 195.365493,206.546725 192.607817,209.302394 L188.474313,213.437654 L159.533768,242.378451 C156.778099,245.13412 154.02243,247.889789 151.264754,250.645458 L147.13125,254.780717 L118.190704,283.721514 L109.751092,275.279894 L101.309472,266.840282 L97.088662,262.619723 L92.8678521,258.400669 C90.0559859,255.586796 87.2421127,252.772923 84.4282394,249.959049 L75.9886268,241.51743 L67.547007,233.077817 C64.7331338,230.263944 61.9212676,227.452077 59.1073944,224.638204 L16.9033099,182.43412 C14.0914437,179.622254 11.2775704,176.80838 8.46369718,173.994507 L0.024084507,165.552887 L33.0981338,132.478838 C35.8538028,129.723169 38.6094718,126.965493 41.3671479,124.209824 L74.4411972,91.1357746 C77.1968662,88.3801056 79.9525352,85.6224296 82.7102113,82.8667606 L115.784261,49.7927113 C118.541937,47.0370423 121.297606,44.2793662 124.053275,41.5236972 L132.322289,33.2546831 L165.396338,0.180633803 Z" id="path-3"></path>
        <path d="M159.078102,0.45729927 L163.129836,4.5100365 L167.181569,8.56277372 C169.883394,11.2625912 172.587226,13.9644161 175.287044,16.6662409 L183.390511,24.769708 C186.092336,27.4715328 188.794161,30.1733577 191.493978,32.8751825 L199.599453,40.9786496 L215.808394,57.1875912 C218.508212,59.8874088 221.210036,62.5912409 223.911861,65.2910584 C226.613686,67.9928832 229.313504,70.694708 232.017336,73.3965328 C234.719161,76.0983577 237.418978,78.7981752 240.120803,81.5 L248.22427,89.6034672 L252.276756,93.6562044 L256.327737,97.7089416 C259.029562,100.410766 261.733394,103.110584 264.433212,105.812409 L272.536679,113.917883 L240.781204,145.673358 C238.135584,148.320985 235.485949,150.966606 232.840328,153.612226 L224.90146,161.551095 L216.962591,169.491971 L153.449635,233.004927 C150.804015,235.652555 148.158394,238.298175 145.508759,240.943796 L141.540328,244.913983 L129.633029,256.821533 C126.985401,259.469161 124.337774,262.114781 121.692153,264.760401 C119.046533,267.408029 116.398905,270.055657 113.753285,272.701277 C111.05146,269.999453 108.351642,267.297628 105.649818,264.595803 C102.947993,261.895985 100.246168,259.194161 97.5443431,256.492336 C94.8445255,253.790511 92.1427007,251.088686 89.4408759,248.388869 C86.7390511,245.687044 84.0372263,242.985219 81.3374088,240.283394 L73.2319343,232.179927 C70.5301095,229.478102 67.830292,226.778285 65.1284672,224.074453 C62.4266423,221.374635 59.7248175,218.67281 57.0229927,215.970985 C54.3231752,213.271168 51.6213504,210.567336 48.9195255,207.867518 C46.2177007,205.165693 43.5178832,202.463869 40.8160584,199.764051 L32.7105839,191.658577 C30.0107664,188.956752 27.3089416,186.256934 24.6071168,183.555109 C21.905292,180.853285 19.2034672,178.15146 16.5036496,175.449635 C13.8018248,172.749818 11.1,170.047993 8.39817518,167.346168 C5.69635036,164.644343 2.99653285,161.942518 0.294708029,159.242701 L8.23357664,151.303832 L16.1724453,143.362956 L32.0501825,127.485219 L36.0213732,123.515032 L55.8687956,103.668613 L63.8076642,95.7277372 L79.6854015,79.85 L83.6558394,75.879813 L111.442883,48.0945255 C114.088504,45.4468978 116.736131,42.7992701 119.381752,40.1536496 L123.35219,36.1842153 L151.139234,8.39817518" id="path-5"></path>
    </defs>
    <g id="Page-1" stroke="none" stroke-width="1" fill="none" fill-rule="evenodd">
        <g id="Group-16-Copy-2" transform="translate(-34.000000, -108.000000)">
            <g id="Group-16-Copy" transform="translate(284.669225, 332.562658) rotate(24.000000) translate(-284.669225, -332.562658) translate(98.169225, 51.562658)">
                <g id="Group-3" transform="translate(0.683274, 115.000000)">
                    <mask id="mask-2" fill="white">
                        <use xlink:href="#path-1"></use>
                    </mask>
                    <g id="Clip-2"></g>
                    <path d="M371.611477,335.857428 C371.611477,397.239455 330.06008,446.999598 278.80266,446.999598 L92.8100204,446.999598 C41.5526011,446.999598 -0.000802150538,397.239455 -0.000802150538,335.857428 L-0.000802150538,111.166343 C-0.000802150538,49.7843157 41.5526011,0.0241721973 92.8100204,0.0241721973 L278.80266,0.0241721973 C330.06008,0.0241721973 371.611477,49.7843157 371.611477,111.166343 L371.611477,335.857428 Z" id="Fill-1" fill="#12307E" mask="url(#mask-2)"></path>
                </g>
                <g id="Group-6" transform="translate(14.683274, 0.000000)">
                    <mask id="mask-4" fill="white">
                        <use xlink:href="#path-3"></use>
                    </mask>
                    <g id="Clip-5"></g>
                    <path d="M165.396338,0.180633803 L173.837958,8.62024648 C176.651831,11.4341197 179.463697,14.247993 182.27757,17.0598592 C185.091444,19.8737324 187.905317,22.6876056 190.717183,25.5014789 L199.158803,33.9430986 C201.972676,36.7549648 204.784542,39.568838 207.600423,42.3827113 C210.412289,45.1965845 213.226162,48.0104577 216.040035,50.824331 C218.853908,53.6382042 221.665775,56.4500704 224.481655,59.2639437 C227.293521,62.0778169 230.107394,64.8916901 232.921268,67.7035563 C235.735141,70.5174296 238.547007,73.3313028 241.362887,76.1451761 C244.174754,78.9590493 246.988627,81.7729225 249.8025,84.5867958 C252.614366,87.398662 255.430246,90.2125352 258.242113,93.0264085 C261.055986,95.8382746 263.869859,98.6521479 266.683732,101.466021 C269.495599,104.279894 272.311479,107.093768 275.123345,109.907641 C277.937218,112.721514 280.751092,115.53338 283.562958,118.347254 C280.807289,121.102923 278.05162,123.860599 275.295951,126.616268 C272.540282,129.371937 269.782606,132.129613 267.026937,134.885282 C264.271268,137.640951 261.515599,140.398627 258.757923,143.154296 C256.002254,145.909965 253.246585,148.665634 250.490915,151.421303 C247.733239,154.178979 244.97757,156.934648 242.221901,159.690317 C239.466232,162.445986 236.706549,165.203662 233.95088,167.959331 C231.195211,170.717007 228.439542,173.472676 225.683873,176.228345 C222.926197,178.984014 220.170528,181.74169 217.414859,184.497359 C214.65919,187.253028 211.901514,190.008697 209.145845,192.766373 L200.876831,201.035387 C198.121162,203.791056 195.365493,206.546725 192.607817,209.302394 C189.852148,212.06007 187.096479,214.815739 184.34081,217.571408 L176.071796,225.840423 L167.802782,234.109437 L159.533768,242.378451 C156.778099,245.13412 154.02243,247.889789 151.264754,250.645458 C148.509085,253.403134 145.753415,256.158803 142.997746,258.914472 L134.728732,267.183486 L126.459718,275.4525 L118.190704,283.721514 L109.751092,275.279894 L101.309472,266.840282 C98.4955986,264.026408 95.6817254,261.212535 92.8678521,258.400669 C90.0559859,255.586796 87.2421127,252.772923 84.4282394,249.959049 L75.9886268,241.51743 L67.547007,233.077817 C64.7331338,230.263944 61.9212676,227.452077 59.1073944,224.638204 C56.2935211,221.824331 53.4796479,219.010458 50.6677817,216.196585 L42.226162,207.756972 L33.7845423,199.315352 L25.3449296,190.875739 C22.5310563,188.061866 19.7171831,185.247993 16.9033099,182.43412 C14.0914437,179.622254 11.2775704,176.80838 8.46369718,173.994507 L0.024084507,165.552887 L8.29109155,157.28588 L16.5601056,149.016866 L24.8291197,140.747852 C27.5867958,137.990176 30.3424648,135.234507 33.0981338,132.478838 C35.8538028,129.723169 38.6094718,126.965493 41.3671479,124.209824 L49.6341549,115.942817 L57.9051761,107.671796 L66.1721831,99.4047887 L74.4411972,91.1357746 C77.1968662,88.3801056 79.9525352,85.6224296 82.7102113,82.8667606 L90.9792254,74.5977465 L99.2482394,66.3287324 L107.515246,58.0617254 L115.784261,49.7927113 C118.541937,47.0370423 121.297606,44.2793662 124.053275,41.5236972 L132.322289,33.2546831 L140.591303,24.985669 L148.85831,16.718662 L157.129331,8.44764085 L165.396338,0.180633803 Z" id="Fill-4" mask="url(#mask-4)"></path>
                </g>
                <path d="M344.467731,133.044965 C352.755122,141.33038 352.755122,154.765376 344.467731,163.052796 L198.737088,308.785938 C190.449697,317.071354 177.014747,317.071354 168.727356,308.785938 L62.8988172,202.955035 C54.6114263,194.667616 54.6114263,181.23262 62.8988172,172.947204 L208.631464,27.2140615 C216.916851,18.9286462 230.351801,18.9286462 238.639192,27.2140615 L344.467731,133.044965 Z" id="Fill-7" fill="#15A6FF"></path>
                <g id="Group-11" transform="translate(76.683274, 141.000000)">
                    <mask id="mask-6" fill="white">
                        <use xlink:href="#path-5"></use>
                    </mask>
                    <g id="Clip-10"></g>
                    <path d="M159.078102,0.45729927 C161.779927,3.15912409 164.479745,5.86094891 167.181569,8.56277372 C169.883394,11.2625912 172.587226,13.9644161 175.287044,16.6662409 L183.390511,24.769708 C186.092336,27.4715328 188.794161,30.1733577 191.493978,32.8751825 L199.599453,40.9786496 C202.301277,43.6804745 205.003102,46.3822993 207.704927,49.0841241 L215.808394,57.1875912 C218.508212,59.8874088 221.210036,62.5912409 223.911861,65.2910584 C226.613686,67.9928832 229.313504,70.694708 232.017336,73.3965328 C234.719161,76.0983577 237.418978,78.7981752 240.120803,81.5 L248.22427,89.6034672 C250.926095,92.305292 253.62792,95.0071168 256.327737,97.7089416 C259.029562,100.410766 261.733394,103.110584 264.433212,105.812409 L272.536679,113.917883 L264.59781,121.856752 L256.658942,129.79562 C254.013321,132.441241 251.367701,135.088869 248.720073,137.734489 L240.781204,145.673358 C238.135584,148.320985 235.485949,150.966606 232.840328,153.612226 L224.90146,161.551095 L216.962591,169.491971 C214.316971,172.137591 211.669343,174.783212 209.023723,177.430839 L201.084854,185.369708 L193.145985,193.308577 L185.207117,201.247445 L177.268248,209.186314 L169.327372,217.12719 C166.681752,219.77281 164.036131,222.420438 161.388504,225.066058 L153.449635,233.004927 C150.804015,235.652555 148.158394,238.298175 145.508759,240.943796 C142.863139,243.591423 140.217518,246.237044 137.571898,248.882664 L129.633029,256.821533 C126.985401,259.469161 124.337774,262.114781 121.692153,264.760401 C119.046533,267.408029 116.398905,270.055657 113.753285,272.701277 C111.05146,269.999453 108.351642,267.297628 105.649818,264.595803 C102.947993,261.895985 100.246168,259.194161 97.5443431,256.492336 C94.8445255,253.790511 92.1427007,251.088686 89.4408759,248.388869 C86.7390511,245.687044 84.0372263,242.985219 81.3374088,240.283394 L73.2319343,232.179927 C70.5301095,229.478102 67.830292,226.778285 65.1284672,224.074453 C62.4266423,221.374635 59.7248175,218.67281 57.0229927,215.970985 C54.3231752,213.271168 51.6213504,210.567336 48.9195255,207.867518 C46.2177007,205.165693 43.5178832,202.463869 40.8160584,199.764051 C38.1142336,197.062226 35.4124088,194.360401 32.7105839,191.658577 C30.0107664,188.956752 27.3089416,186.256934 24.6071168,183.555109 C21.905292,180.853285 19.2034672,178.15146 16.5036496,175.449635 C13.8018248,172.749818 11.1,170.047993 8.39817518,167.346168 C5.69635036,164.644343 2.99653285,161.942518 0.294708029,159.242701 L8.23357664,151.303832 L16.1724453,143.362956 L24.1113139,135.424088 C26.7589416,132.778467 29.404562,130.130839 32.0501825,127.485219 C34.6978102,124.837591 37.345438,122.191971 39.9910584,119.54635 L47.929927,111.607482 L55.8687956,103.668613 L63.8076642,95.7277372 C66.4532847,93.0821168 69.1009124,90.4344891 71.7465328,87.7888686 L79.6854015,79.85 C82.3330292,77.2023723 84.9786496,74.5567518 87.6262774,71.9111314 L95.565146,63.9722628 L103.504015,56.0333942 L111.442883,48.0945255 C114.088504,45.4468978 116.736131,42.7992701 119.381752,40.1536496 C122.02938,37.5080292 124.675,34.8604015 127.322628,32.214781 L135.261496,24.2759124 L143.200365,16.3370438 L151.139234,8.39817518 C153.784854,5.75054745 156.432482,3.10492701 159.078102,0.45729927" id="Fill-9" mask="url(#mask-6)"></path>
                </g>
                <path d="M311.73508,210.628367 C318.81596,217.709233 318.81596,229.188514 311.73508,236.269379 L180.423346,367.580858 C173.344476,374.661723 161.863163,374.661723 154.784293,367.580858 L64.3563994,277.15314 C57.27552,270.072274 57.27552,258.592994 64.3563994,251.512128 L195.668134,120.200649 C202.749013,113.121793 214.228316,113.121793 221.309196,120.200649 L311.73508,210.628367 Z" id="Fill-12" fill="#2F5CCA"></path>
                <path d="M0.683274021,226 L0.683274021,450.802646 C0.683274021,512.21515 42.2662687,562 93.5581832,562 L279.683274,562" id="Fill-14" fill="#7ACBF6"></path>
            </g>
        </g>
    </g>
</svg>
