<?xml version="1.0" encoding="UTF-8"?>
<svg width="233px" height="73px" viewBox="0 0 233 73" version="1.1" xmlns="http://www.w3.org/2000/svg" xmlns:xlink="http://www.w3.org/1999/xlink">
    <!-- Generator: Sketch 52.5 (67469) - http://www.bohemiancoding.com/sketch -->
    <title>Group 22</title>
    <desc>Created with Sketch.</desc>
    <defs>
        <polygon id="path-1" points="0.000654545455 0.247322034 71.8429091 0.247322034 71.8429091 71.9996746 0.000654545455 71.9996746"></polygon>
        <polygon id="path-3" points="0.000163636364 0.198723397 53.9003455 0.198723397 53.9003455 55 0.000163636364 55"></polygon>
        <polygon id="path-5" points="0.24874466 0.322936755 39.3073951 0.322936755 39.3073951 49.1480139 0.24874466 49.1480139"></polygon>
        <polygon id="path-7" points="0.523867961 0.649751429 9.82741165 0.649751429 9.82741165 12.1714286 0.523867961 12.1714286"></polygon>
        <polygon id="path-9" points="0.345357282 0.333485326 10.9065534 0.333485326 10.9065534 11.202571 0.345357282 11.202571"></polygon>
    </defs>
    <g id="Page-1" stroke="none" stroke-width="1" fill="none" fill-rule="evenodd">
        <g id="Group-22">
            <g id="Group-11-Copy">
                <g id="Group-3" transform="translate(0.843750, 0.000000)">
                    <mask id="mask-2" fill="white">
                        <use xlink:href="#path-1"></use>
                    </mask>
                    <g id="Clip-2"></g>
                    <path d="M71.8435636,54.1583186 C71.8435636,64.0121492 63.8106545,71.9996746 53.9008364,71.9996746 L17.9433818,71.9996746 C8.03356364,71.9996746 0.000654545455,64.0121492 0.000654545455,54.1583186 L0.000654545455,18.0899797 C0.000654545455,8.23452203 8.03356364,0.24699661 17.9433818,0.24699661 L53.9008364,0.24699661 C63.8106545,0.24699661 71.8435636,8.23452203 71.8435636,18.0899797 L71.8435636,54.1583186 Z" id="Fill-1" fill="#12307E" mask="url(#mask-2)"></path>
                </g>
                <path d="M63.8316479,45.248508 C65.1811174,46.5979775 65.1811174,48.7863064 63.8316479,50.1357759 L42.9795259,70.9878979 C41.6300564,72.3373674 39.4417275,72.3373674 38.092258,70.9878979 L20.8558521,53.751492 C19.5063826,52.4020225 19.5063826,50.2136936 20.8558521,48.8642241 L41.7079741,28.0121021 C43.0574436,26.6626326 45.2457725,26.6626326 46.5968999,28.0121021 L63.8316479,45.248508 Z" id="Fill-4" fill="#2F5CCA"></path>
                <path d="M52.8316479,24.248508 C54.1811174,25.5979775 54.1811174,27.7863064 52.8316479,29.1357759 L31.9795259,49.9878979 C30.6300564,51.3373674 28.4417275,51.3373674 27.092258,49.9878979 L9.85585212,32.751492 C8.50638263,31.4020225 8.50638263,29.2136936 9.85585212,27.8642241 L30.7079741,7.01210212 C32.0574436,5.66263263 34.2457725,5.66263263 35.595242,7.01210212 L52.8316479,24.248508 Z" id="Fill-6" fill="#15A6FF"></path>
                <g id="Group-10" transform="translate(0.843750, 18.000000)">
                    <mask id="mask-4" fill="white">
                        <use xlink:href="#path-3"></use>
                    </mask>
                    <g id="Clip-9"></g>
                    <path d="M0.000163636364,0.198723397 L0.000163636364,36.8629121 C0.000163636364,46.8811821 8.03307273,55.0006616 17.9428909,55.0006616 L53.9003455,55.0006616" id="Fill-8" fill="#7ACBF6" mask="url(#mask-4)"></path>
                </g>
            </g>
            <g id="Group-34-Copy" transform="translate(90.000000, 1.000000)">
                <path d="M21.8875899,1 L0.33125,49 L10.1498099,49 L14.2693581,39.9489985 L39.3951642,39.9489985 L43.4459522,49 L53.33125,49 L31.7749101,1 L21.8875899,1 Z M26.8302388,11.0791113 L35.7569378,31.512035 L17.9075846,31.512035 L26.8302388,11.0791113 Z" id="Fill-1" fill="#12307E"></path>
                <g id="Group-33" transform="translate(1.331250, 0.000000)">
                    <g id="Group-4" transform="translate(54.097087, 0.000000)">
                        <mask id="mask-6" fill="white">
                            <use xlink:href="#path-5"></use>
                        </mask>
                        <g id="Clip-3"></g>
                        <path d="M0.45774466,14.9219568 C0.524705825,4.7304139 10.1691427,0.322328183 19.0546864,0.322328183 C28.6991233,0.322328183 39.1694146,4.2476139 39.1694146,15.6806425 C39.1694146,27.937271 29.9389194,30.2782425 19.8135796,30.2782425 C15.816201,30.2782425 9.34328835,31.3128139 9.34328835,36.5465282 L9.34328835,40.6766996 L39.3073951,40.6766996 L39.3073951,49.1480139 L0.24874466,49.1480139 L0.24874466,36.4755282 C0.24874466,25.3893853 10.3071233,22.0848425 19.8135796,22.0848425 C23.4639777,22.0848425 30.1458903,21.4640996 30.1458903,15.8875568 C30.1458903,10.6538425 25.3916476,8.17289961 19.192667,8.17289961 C14.4404534,8.17289961 9.5482301,10.5828425 9.47923981,14.9219568 L0.45774466,14.9219568 Z" id="Fill-2" fill="#12307E" mask="url(#mask-6)"></path>
                    </g>
                    <path d="M108.970518,40.6773082 L122.884237,40.6773082 C126.603625,40.6773082 131.90979,39.437851 131.90979,34.8918225 C131.90979,30.5547368 126.603625,28.2827368 122.884237,28.2827368 L108.970518,28.2827368 L108.970518,40.6773082 Z M108.970518,20.2942225 L122.884237,20.2942225 C128.602315,20.2942225 130.463023,17.8842796 130.463023,15.1294796 C130.463023,12.9244225 128.671305,9.20605104 122.884237,9.20605104 L108.970518,9.20605104 L108.970518,20.2942225 Z M139.486548,14.9225653 C139.486548,18.6409368 137.694829,22.2213653 133.216548,24.2195082 C138.865635,25.9397368 140.933315,31.9321368 140.933315,34.9628225 C140.933315,45.7041082 132.873625,49.1486225 122.884237,49.1486225 L100.015984,49.1486225 L100.015984,0.943679612 L122.884237,0.943679612 C132.390693,0.943679612 139.486548,5.2117939 139.486548,14.9225653 Z" id="Fill-5" fill="#12307E"></path>
                    <polygon id="Fill-7" fill="#15A6FF" points="8.21770583 70.0311425 0.0788805825 70.0311425 0.0788805825 59.1620568 8.21770583 59.1620568 8.21770583 61.1500568 2.11409417 61.1500568 2.11409417 63.6492568 8.00058932 63.6492568 8.00058932 65.5581425 2.11409417 65.5581425 2.11409417 68.0127139 8.21770583 68.0127139"></polygon>
                    <path d="M14.6796612,61.4433882 L12.6606806,66.0705596 L16.6986417,66.0705596 L14.6796612,61.4433882 Z M17.5204379,67.9814739 L11.8368553,67.9814739 L10.9054864,70.030331 L8.6835932,70.030331 L13.5595835,59.1612453 L15.7977097,59.1612453 L20.6757291,70.030331 L18.439632,70.030331 L17.5204379,67.9814739 Z" id="Fill-9" fill="#15A6FF"></path>
                    <g id="Group-13" transform="translate(20.291262, 58.139251)">
                        <mask id="mask-8" fill="white">
                            <use xlink:href="#path-7"></use>
                        </mask>
                        <g id="Clip-12"></g>
                        <path d="M7.85510097,3.64595143 C7.48174175,3.02520857 6.45703301,2.43489429 5.27608155,2.43489429 C3.75423689,2.43489429 3.02375146,3.07186571 3.02375146,3.87923714 C3.02375146,4.82658 4.1418,5.09029429 5.44652816,5.24649429 C7.71509126,5.52440857 9.82741165,6.11472286 9.82741165,8.70926571 C9.82741165,11.13138 7.68262524,12.1720371 5.26187767,12.1720371 C3.03998447,12.1720371 1.32943107,11.4884086 0.523867961,9.50040857 L2.23239223,8.61595143 C2.71329515,9.81078 3.9713534,10.3382086 5.29028544,10.3382086 C6.58080971,10.3382086 7.79219806,9.88989429 7.79219806,8.70926571 C7.79219806,7.68280857 6.71879029,7.26492286 5.27608155,7.10872286 C3.05418835,6.84500857 1.00477087,6.25469429 1.00477087,3.81635143 C1.00477087,1.58086571 3.21043107,0.663951429 5.21317864,0.649751429 C6.9054699,0.649751429 8.66066408,1.13052286 9.48651845,2.80815143 L7.85510097,3.64595143 Z" id="Fill-11" fill="#15A6FF" mask="url(#mask-8)"></path>
                    </g>
                    <polygon id="Fill-14" fill="#15A6FF" points="35.8032709 63.6492568 38.6927466 59.1620568 41.1621932 59.1620568 41.1621932 59.2533425 36.8279796 65.5439425 36.8279796 70.0311425 34.7785621 70.0311425 34.7785621 65.5439425 30.6005913 59.2533425 30.6005913 59.1620568 33.039601 59.1620568"></polygon>
                    <polygon id="Fill-16" fill="#15A6FF" points="56.9425049 70.0311425 55.2035437 70.0311425 53.8521456 66.6150282 52.7016311 63.1826853 51.5693786 66.6454568 50.2484175 70.0311425 48.5094563 70.0311425 44.5161359 59.1620568 46.8151359 59.1620568 49.3779223 67.0024853 52.0178155 59.1620568 53.3529806 59.1620568 56.0720097 67.0024853 58.5576893 59.1620568 60.8566893 59.1620568"></polygon>
                    <path d="M66.9911437,61.4433882 L64.9721631,66.0705596 L69.0101243,66.0705596 L66.9911437,61.4433882 Z M69.8339495,67.9814739 L64.150367,67.9814739 L63.2169689,70.030331 L60.9971049,70.030331 L65.8730951,59.1612453 L68.1112214,59.1612453 L72.9872117,70.030331 L70.7511146,70.030331 L69.8339495,67.9814739 Z" id="Fill-18" fill="#15A6FF"></path>
                    <polygon id="Fill-20" fill="#15A6FF" points="76.6986864 63.6492568 79.5881621 59.1620568 82.0576087 59.1620568 82.0576087 59.2533425 77.7254243 65.5439425 77.7254243 70.0311425 75.6739777 70.0311425 75.6739777 65.5439425 71.4960068 59.2533425 71.4960068 59.1620568 73.9350165 59.1620568"></polygon>
                    <polygon id="Fill-22" fill="#15A6FF" points="88.9071272 61.0244882 85.4596417 61.0244882 85.4596417 59.1622596 94.4060592 59.1622596 94.4060592 61.0244882 90.9585738 61.0244882 90.9585738 70.0313453 88.9071272 70.0313453"></polygon>
                    <path d="M97.186165,64.7051282 C97.2308058,66.490271 98.1946408,68.4011853 100.759456,68.4011853 C103.320214,68.4011853 104.284049,66.476071 104.316515,64.6888996 C104.346951,62.8570996 103.320214,60.8082425 100.759456,60.8082425 C98.1946408,60.8082425 97.1394951,62.8733282 97.186165,64.7051282 M106.335495,64.658471 C106.303029,67.4680425 104.580301,70.2796425 100.759456,70.2796425 C96.9365825,70.2796425 95.1671845,67.5309282 95.1671845,64.672671 C95.1671845,61.8164425 96.9994854,58.9439853 100.759456,58.9439853 C104.501165,58.9439853 106.363903,61.8164425 106.335495,64.658471" id="Fill-24" fill="#15A6FF"></path>
                    <path d="M113.028771,64.9528168 L116.104926,64.9528168 C118.730616,64.9528168 118.714383,61.1025882 116.104926,61.1025882 L113.028771,61.1025882 L113.028771,64.9528168 Z M116.104926,66.8312739 L113.028771,66.8312739 L113.028771,70.030331 L110.977324,70.030331 L110.977324,59.1612453 C112.685849,59.1612453 114.396402,59.1450168 116.104926,59.1450168 C121.417179,59.1450168 121.433412,66.8312739 116.104926,66.8312739 Z" id="Fill-26" fill="#15A6FF"></path>
                    <path d="M126.354854,61.4433882 L124.335874,66.0705596 L128.373835,66.0705596 L126.354854,61.4433882 Z M129.19766,67.9814739 L123.514078,67.9814739 L122.58068,70.030331 L120.358786,70.030331 L125.236806,59.1612453 L127.474932,59.1612453 L132.350922,70.030331 L130.114825,70.030331 L129.19766,67.9814739 Z" id="Fill-28" fill="#15A6FF"></path>
                    <g id="Group-32" transform="translate(130.514563, 58.828571)">
                        <mask id="mask-10" fill="white">
                            <use xlink:href="#path-9"></use>
                        </mask>
                        <g id="Clip-31"></g>
                        <polygon id="Fill-30" fill="#15A6FF" mask="url(#mask-10)" points="5.54803689 4.82068533 8.43751262 0.333485326 10.9069592 0.333485326 10.9069592 0.42477104 6.57274563 6.71537104 6.57274563 11.202571 4.52332816 11.202571 4.52332816 6.71537104 0.345357282 0.42477104 0.345357282 0.333485326 2.78436699 0.333485326"></polygon>
                    </g>
                </g>
            </g>
        </g>
    </g>
</svg>
