<?xml version="1.0" standalone="no"?>
<!DOCTYPE svg PUBLIC "-//W3C//DTD SVG 20010904//EN"
 "http://www.w3.org/TR/2001/REC-SVG-20010904/DTD/svg10.dtd">
<svg version="1.0" xmlns="http://www.w3.org/2000/svg"
 width="2559.000000pt" height="986.000000pt" viewBox="0 0 2559.000000 986.000000"
 preserveAspectRatio="xMidYMid meet">

<g transform="translate(0.000000,986.000000) scale(0.100000,-0.100000)"
fill="#000000" stroke="none">
<path d="M1950 9539 c-398 -50 -802 -269 -1056 -572 -239 -284 -370 -593 -404
-952 -5 -60 -10 -304 -10 -542 l0 -431 -139 -4 c-123 -3 -143 -5 -168 -24 -54
-40 -53 -30 -53 -582 0 -436 2 -517 15 -542 28 -55 46 -60 202 -60 l143 0 0
-297 c0 -164 5 -349 10 -411 26 -290 119 -556 279 -793 251 -373 612 -617
1069 -721 96 -22 105 -22 1150 -25 l1052 -4 0 365 0 365 -1007 4 c-908 3
-1014 5 -1071 20 -360 97 -619 349 -714 695 -20 71 -22 108 -26 440 l-4 362
422 0 c351 0 432 3 483 16 220 57 395 241 443 466 55 254 -76 532 -306 652
-134 70 -129 70 -608 74 l-433 3 3 492 4 492 27 90 c53 172 115 281 232 404
38 40 98 93 131 117 83 60 231 128 334 156 85 22 86 22 1088 25 l1002 4 0 364
0 365 -1012 -1 c-557 -1 -1042 -5 -1078 -10z m85 -2820 c150 -56 232 -236 179
-392 -21 -61 -93 -141 -158 -175 -69 -35 -187 -38 -257 -6 -180 83 -242 296
-135 459 79 120 231 167 371 114z"/>
<path d="M10636 9538 c-139 -11 -269 -39 -343 -74 -69 -33 -141 -102 -171
-164 -54 -114 -82 -319 -82 -613 0 -558 82 -737 369 -807 121 -30 251 -40 535
-40 353 0 545 26 645 87 119 74 164 175 177 401 l7 112 -170 0 -170 0 -5 -82
c-13 -197 -65 -229 -388 -244 -167 -7 -390 8 -470 32 -72 21 -122 72 -145 144
-27 90 -41 371 -28 578 14 210 28 267 83 322 64 64 106 72 401 78 448 7 517
-21 529 -218 l5 -85 169 -3 169 -2 -6 127 c-14 330 -122 421 -538 453 -156 12
-417 11 -573 -2z"/>
<path d="M14430 9539 c-163 -13 -280 -48 -353 -103 -75 -58 -117 -187 -117
-366 0 -248 50 -357 190 -416 102 -44 268 -66 628 -84 278 -14 377 -35 425
-87 39 -44 46 -216 10 -291 -34 -71 -136 -92 -446 -92 -321 0 -426 21 -464 93
-10 18 -19 66 -22 112 l-6 80 -167 3 -168 2 0 -87 c2 -302 82 -401 360 -445
132 -20 830 -18 930 4 124 27 189 56 241 108 70 71 91 142 97 339 13 440 -82
503 -808 541 -329 17 -418 38 -446 105 -19 45 -19 195 0 240 30 71 140 95 431
95 294 -1 389 -24 425 -102 13 -28 20 -65 20 -105 l0 -63 172 0 171 0 -6 108
c-7 127 -34 222 -77 274 -39 47 -133 93 -232 113 -160 32 -552 44 -788 24z"/>
<path d="M22327 9539 c-400 -33 -531 -133 -582 -442 -22 -131 -30 -481 -16
-658 20 -243 58 -363 141 -445 127 -126 311 -160 822 -151 406 7 524 30 629
125 84 75 116 166 126 357 l6 115 -170 0 -170 0 -5 -88 c-11 -190 -66 -223
-388 -238 -166 -7 -390 8 -468 31 -71 21 -125 76 -147 147 -27 88 -40 370 -27
576 13 210 28 268 82 322 64 64 106 72 401 78 450 7 515 -21 533 -227 l7 -81
166 0 166 0 -6 128 c-13 328 -122 420 -538 452 -152 11 -417 11 -562 -1z"/>
<path d="M12597 9498 c-8 -18 -175 -394 -371 -836 -196 -442 -356 -805 -356
-808 0 -2 81 -3 181 -2 l181 3 68 165 69 165 463 3 464 2 70 -167 69 -168 183
-3 c117 -1 182 1 182 8 0 5 -164 382 -364 837 l-364 828 -231 3 -231 2 -13
-32z m419 -631 l171 -412 -350 -3 c-193 -1 -352 -1 -354 2 -2 2 69 174 158
382 89 209 168 394 176 412 7 17 17 32 21 32 4 0 84 -186 178 -413z"/>
<path d="M15870 8690 l0 -840 173 2 172 3 3 358 2 357 495 0 495 0 2 -357 3
-358 173 -3 172 -2 0 840 0 840 -175 0 -175 0 0 -330 0 -330 -495 0 -495 0 0
330 0 330 -175 0 -175 0 0 -840z"/>
<path d="M17892 8693 l3 -838 635 0 c565 0 644 2 712 17 129 29 215 86 260
172 21 41 50 164 42 178 -3 4 -160 8 -350 8 l-344 0 0 -96 c0 -86 -2 -95 -17
-90 -26 10 -506 287 -521 301 -11 10 40 43 257 169 149 86 273 156 276 156 3
0 5 -43 5 -95 l0 -95 340 0 c321 0 340 1 340 18 0 33 -51 122 -88 152 -39 32
-128 70 -165 70 -13 0 3 11 38 25 80 33 138 94 162 171 14 46 18 91 17 199 0
122 -3 148 -23 198 -41 105 -108 158 -243 194 -55 14 -145 17 -701 20 l-637 4
2 -838z m1189 559 c64 -31 83 -75 83 -196 0 -115 -23 -172 -81 -201 -35 -18
-68 -20 -445 -23 l-408 -4 0 227 0 226 403 -3 c395 -3 403 -3 448 -26z"/>
<path d="M20184 9007 l-232 -522 516 -5 515 -5 130 -312 129 -313 185 0 c147
0 184 3 180 13 -3 7 -168 385 -368 840 l-364 827 -230 0 -230 0 -231 -523z
m484 226 c11 -27 59 -142 107 -258 48 -115 89 -213 92 -217 2 -5 -99 -8 -225
-8 l-230 0 112 265 c61 146 114 265 117 265 4 0 16 -21 27 -47z"/>
<path d="M23740 8690 l0 -840 170 0 170 0 0 360 0 360 103 0 102 0 360 -360
360 -360 227 0 c126 0 228 3 227 8 -1 4 -199 198 -441 431 l-439 424 408 409
408 408 -215 0 -215 0 -338 -345 -339 -345 -104 0 -104 0 0 345 0 345 -170 0
-170 0 0 -840z"/>
<path d="M19837 8223 c-13 -21 -157 -356 -157 -364 0 -6 69 -8 178 -7 l177 3
77 180 c43 99 77 183 78 188 0 4 -78 7 -174 7 -96 0 -177 -3 -179 -7z"/>
<path d="M19275 7116 c-83 -18 -123 -65 -199 -232 -32 -71 -123 -256 -202
-412 -141 -279 -185 -385 -167 -403 5 -5 23 -13 40 -18 60 -17 99 12 210 160
55 74 125 173 156 220 67 104 108 140 199 173 87 33 101 27 126 -57 35 -116
133 -316 180 -368 65 -73 97 -79 208 -41 49 16 134 37 189 47 174 30 215 48
215 93 0 34 -16 59 -96 144 -84 89 -332 389 -426 513 -90 118 -130 159 -180
179 -45 19 -167 20 -253 2z"/>
<path d="M25174 6928 c-153 -119 -1243 -1021 -1248 -1033 -3 -9 -6 -34 -6 -54
0 -45 28 -91 110 -176 32 -34 87 -106 123 -162 165 -256 527 -880 527 -910 0
-11 -10 -29 -23 -41 l-24 -22 -1304 2 c-1291 3 -1304 3 -1339 23 -19 12 -43
36 -55 55 -19 34 -20 48 -17 415 1 237 10 504 22 710 15 235 20 413 18 620
l-3 290 -36 12 c-51 16 -431 20 -485 5 -56 -16 -104 -50 -128 -92 -21 -34 -21
-46 -18 -580 1 -300 7 -637 13 -750 21 -428 22 -511 9 -716 -16 -276 -16 -334
5 -377 33 -69 -81 -65 1764 -76 1328 -8 1671 -7 1700 3 62 21 540 297 561 323
22 28 25 58 11 96 -9 23 -452 645 -705 989 -131 179 -133 182 -113 223 14 29
46 46 364 190 191 86 376 171 410 187 67 31 109 75 118 124 6 27 -129 618
-157 687 -10 25 -43 57 -59 57 -3 0 -19 -10 -35 -22z"/>
<path d="M12669 6745 c-59 -19 -115 -74 -130 -128 -9 -32 -9 -198 0 -722 7
-374 17 -723 21 -775 4 -52 9 -191 9 -307 l1 -213 145 0 145 0 0 100 c0 55 2
100 5 100 3 0 68 -36 145 -80 77 -44 144 -80 150 -80 7 0 9 41 4 133 -8 165
12 867 31 1127 8 109 15 334 15 511 l0 316 -27 14 c-42 20 -451 24 -514 4z"/>
<path d="M11695 6708 c-121 -9 -181 -24 -200 -52 -23 -31 -19 -158 10 -341 14
-88 30 -227 36 -309 5 -82 18 -192 29 -245 31 -152 39 -213 55 -431 8 -113 30
-320 50 -460 19 -140 35 -258 35 -262 0 -4 116 -8 258 -8 l259 0 6 268 c4 147
11 420 16 607 6 187 7 386 3 441 -4 56 -4 137 0 180 4 44 11 201 14 350 l6
270 -238 0 c-132 -1 -284 -4 -339 -8z"/>
<path d="M10754 6090 c-12 -4 -25 -17 -29 -27 -7 -17 -27 -191 -41 -363 -10
-113 -7 -115 189 -140 87 -11 171 -27 188 -35 29 -15 29 -16 31 -113 3 -165 0
-184 -30 -211 -26 -23 -29 -24 -152 -17 -69 3 -188 10 -265 15 -243 16 -516
18 -551 3 -51 -22 -56 -45 -44 -215 12 -183 15 -211 45 -397 13 -80 31 -228
40 -330 20 -232 28 -270 66 -306 28 -27 37 -29 122 -33 89 -3 401 8 777 29
102 6 275 15 385 20 341 16 627 41 662 57 49 23 67 70 71 196 l4 107 -779 -2
c-616 -2 -783 0 -795 10 -13 11 -14 20 -3 67 8 32 11 86 8 132 -8 122 12 338
34 376 31 52 106 83 221 91 53 4 142 14 196 21 83 12 104 18 125 40 25 25 26
30 32 198 4 94 12 190 18 212 17 63 14 112 -8 134 -26 26 -70 37 -231 55 -113
13 -138 19 -152 36 -15 19 -15 25 -2 68 8 26 22 72 30 102 10 30 29 67 46 83
31 32 43 32 162 7 81 -17 105 4 91 77 -10 55 -42 63 -257 62 -101 0 -192 -4
-204 -9z"/>
<path d="M15471 5938 c-19 -7 -44 -26 -55 -41 -41 -55 -33 -316 24 -822 51
-449 51 -467 -11 -504 -44 -27 -220 -36 -412 -22 -106 8 -389 9 -929 4 l-778
-6 70 -41 c60 -34 68 -42 53 -50 -10 -5 -141 -81 -292 -168 -151 -87 -276
-158 -278 -158 -1 0 -3 45 -3 100 l0 100 -150 0 -150 0 0 -37 c0 -72 22 -164
45 -191 l23 -27 1622 2 c1592 3 1622 3 1666 22 72 32 85 73 95 306 4 104 8
294 9 421 0 127 7 298 15 380 26 269 56 697 48 705 -25 24 -557 47 -612 27z"/>
<path d="M20715 5884 c-5 -2 -104 -8 -218 -12 -228 -10 -245 -14 -276 -78 -33
-66 -3 -348 64 -609 34 -132 69 -337 70 -410 0 -33 -4 -42 -27 -52 -43 -21
-69 -1 -156 121 -90 125 -162 262 -216 411 -73 204 -98 230 -205 220 -112 -10
-132 -29 -204 -193 -32 -70 -69 -190 -122 -394 -43 -161 -85 -309 -95 -328
-37 -72 -145 -91 -235 -42 -81 44 -79 28 -80 518 0 393 -2 432 -18 457 -37 57
-45 59 -314 61 -262 3 -301 -3 -322 -42 -15 -28 -14 -77 4 -142 8 -30 18 -102
21 -160 4 -58 13 -123 21 -145 8 -22 18 -109 23 -195 5 -85 14 -186 20 -225
14 -82 5 -296 -15 -397 -20 -98 -84 -227 -140 -283 -87 -87 -225 -126 -374
-106 -146 19 -231 73 -285 182 -41 82 -46 133 -20 218 22 74 174 379 218 436
20 26 36 51 36 55 0 24 -67 56 -228 109 -190 63 -267 97 -360 159 -66 44 -125
50 -162 17 -38 -33 -80 -107 -80 -139 0 -17 -16 -83 -36 -146 -49 -159 -64
-273 -64 -480 0 -276 37 -410 140 -509 90 -88 194 -137 446 -214 197 -60 268
-71 429 -64 143 6 259 32 376 85 117 53 309 163 389 223 134 101 172 153 256
346 28 66 88 54 189 -38 76 -68 100 -82 183 -103 45 -12 68 -14 81 -6 27 14
56 98 75 218 9 57 27 144 41 193 14 49 46 181 70 292 25 111 50 217 56 235 11
32 29 44 29 19 0 -21 68 -121 161 -238 46 -58 112 -141 146 -185 157 -200 267
-286 345 -269 18 4 98 10 178 13 114 6 152 11 172 24 74 49 99 109 118 283 6
55 25 179 41 275 25 142 31 210 34 360 2 102 10 241 20 310 24 183 25 283 1
309 -30 33 -159 68 -201 55z"/>
<path d="M15640 3935 c-173 -32 -208 -43 -238 -72 l-25 -25 6 -144 c7 -165 24
-222 76 -248 40 -21 59 -20 193 8 62 13 133 27 158 30 84 13 104 45 90 143
-34 241 -42 280 -59 303 -24 33 -49 34 -201 5z"/>
<path d="M120 2735 l0 -45 12675 0 12675 0 0 45 0 45 -12675 0 -12675 0 0 -45z"/>
<path d="M13210 1799 c-53 -104 -52 -109 11 -48 56 54 59 59 48 83 -7 14 -16
26 -20 26 -5 0 -23 -27 -39 -61z"/>
<path d="M13626 1768 c-2 -51 -8 -115 -11 -141 -5 -31 -3 -53 4 -60 15 -15 15
-179 0 -194 -11 -11 -7 -234 7 -345 6 -45 4 -51 -36 -98 l-42 -50 171 0 171 0
0 146 0 146 109 -4 c91 -3 115 -7 137 -24 49 -36 68 -70 68 -122 0 -93 -70
-162 -166 -162 -46 0 -47 0 -54 -37 -4 -21 -18 -69 -31 -107 -12 -38 -23 -71
-23 -73 0 -10 162 -1 227 13 213 44 317 155 316 339 0 50 -6 85 -23 122 -27
64 -103 137 -159 154 -22 7 -41 15 -41 19 0 4 15 14 32 21 46 19 106 75 131
123 17 32 21 58 21 121 -1 130 -51 207 -170 262 -70 32 -178 43 -426 43 l-207
0 -5 -92z m473 -134 c52 -20 73 -55 73 -115 0 -95 -63 -139 -202 -139 l-80 0
0 135 0 135 85 0 c54 0 99 -6 124 -16z"/>
<path d="M12884 1138 c-120 -243 -225 -454 -232 -470 l-12 -28 140 0 140 0 39
85 40 85 83 0 83 0 80 97 c44 53 81 99 83 102 1 3 -50 5 -114 3 -64 -2 -120 0
-124 5 -5 4 11 53 35 108 24 55 58 135 75 178 18 43 36 74 40 70 4 -4 31 -66
60 -138 69 -172 68 -169 87 -153 15 12 110 126 141 168 11 15 9 27 -16 81 -82
177 -115 240 -125 236 -6 -2 -22 -24 -35 -50 l-23 -47 -109 55 c-60 30 -111
55 -113 55 -2 0 -102 -199 -223 -442z"/>
<path d="M12680 500 c0 -5 5 -10 10 -10 6 0 10 5 10 10 0 6 -4 10 -10 10 -5 0
-10 -4 -10 -10z"/>
<path d="M12710 500 c0 -5 5 -10 10 -10 6 0 10 5 10 10 0 6 -4 10 -10 10 -5 0
-10 -4 -10 -10z"/>
<path d="M12880 500 c0 -5 5 -10 10 -10 6 0 10 5 10 10 0 6 -4 10 -10 10 -5 0
-10 -4 -10 -10z"/>
<path d="M13242 479 c-23 -17 -42 -35 -42 -40 0 -5 19 -9 43 -9 46 0 67 -13
67 -42 0 -16 -9 -18 -70 -18 l-70 0 0 45 c0 25 -4 45 -10 45 -5 0 -10 -20 -10
-45 0 -43 -1 -45 -30 -45 -29 0 -30 2 -30 45 0 25 -4 45 -10 45 -6 0 -10 -28
-10 -65 0 -50 -4 -66 -17 -74 -16 -9 -16 -10 4 -11 13 0 24 8 28 20 6 18 17
20 148 22 l142 3 3 78 c2 48 -1 77 -8 77 -6 0 -10 -28 -10 -70 0 -77 -18 -96
-35 -37 -9 29 -15 33 -55 37 l-45 5 35 27 c49 38 32 44 -18 7z"/>
<path d="M13490 445 l-5 -70 -37 -3 c-51 -4 -49 -22 2 -22 49 0 52 6 48 96
l-4 69 -4 -70z"/>
<path d="M13530 430 c0 -47 4 -80 10 -80 6 0 10 33 10 80 0 47 -4 80 -10 80
-6 0 -10 -33 -10 -80z"/>
<path d="M13788 443 l-3 -68 -55 0 -55 0 -3 38 c-4 46 -22 49 -22 4 0 -68 -5
-68 405 -67 202 1 370 -2 373 -5 10 -10 58 -5 70 7 15 15 16 63 2 89 -11 20
-45 25 -68 10 -8 -5 -17 -24 -21 -42 -5 -24 -13 -35 -27 -37 -17 -2 -20 3 -20
34 0 24 -6 41 -19 50 -22 16 -85 19 -85 4 0 -5 16 -10 35 -10 38 0 61 -27 50
-60 -5 -17 -16 -20 -71 -20 l-64 0 0 50 c0 48 -1 50 -28 50 -37 0 -62 -28 -62
-68 0 -28 -3 -32 -28 -32 -26 0 -28 3 -24 29 6 40 -27 71 -73 71 -28 0 -35 4
-35 20 0 11 -4 20 -10 20 -6 0 -10 -30 -10 -70 0 -68 -1 -70 -25 -70 -23 0
-25 4 -25 45 0 25 -4 45 -10 45 -5 0 -10 -20 -10 -45 0 -44 -1 -45 -32 -45
l-33 0 3 70 c2 44 0 70 -7 70 -6 0 -11 -29 -13 -67z m257 -13 c13 -39 -3 -60
-46 -60 -39 0 -39 0 -39 40 0 40 0 40 39 40 31 0 41 -4 46 -20z m145 -21 c0
-36 -2 -40 -22 -37 -40 5 -37 78 2 78 17 0 20 -6 20 -41z m288 29 c31 -31 0
-105 -33 -78 -25 21 -14 90 15 90 3 0 11 -5 18 -12z"/>
<path d="M13980 500 c0 -5 5 -10 10 -10 6 0 10 5 10 10 0 6 -4 10 -10 10 -5 0
-10 -4 -10 -10z"/>
<path d="M14145 500 c-3 -5 1 -10 9 -10 9 0 16 5 16 10 0 6 -4 10 -9 10 -6 0
-13 -4 -16 -10z"/>
<path d="M13130 490 c0 -5 5 -10 10 -10 6 0 10 5 10 10 0 6 -4 10 -10 10 -5 0
-10 -4 -10 -10z"/>
<path d="M13160 490 c0 -5 5 -10 10 -10 6 0 10 5 10 10 0 6 -4 10 -10 10 -5 0
-10 -4 -10 -10z"/>
<path d="M13443 440 c0 -36 2 -50 4 -32 2 17 2 47 0 65 -2 17 -4 3 -4 -33z"/>
<path d="M13850 490 c0 -5 5 -10 10 -10 6 0 10 5 10 10 0 6 -4 10 -10 10 -5 0
-10 -4 -10 -10z"/>
<path d="M13880 490 c0 -5 5 -10 10 -10 6 0 10 5 10 10 0 6 -4 10 -10 10 -5 0
-10 -4 -10 -10z"/>
<path d="M12672 454 c-24 -16 -29 -53 -12 -85 10 -17 22 -19 119 -19 90 0 110
3 115 16 10 26 7 104 -4 104 -5 0 -10 -22 -10 -50 0 -49 -1 -50 -30 -50 -29 0
-30 2 -30 45 0 25 -4 45 -10 45 -5 0 -10 -20 -10 -45 0 -41 -2 -45 -25 -45
-23 0 -25 3 -25 50 0 48 -1 50 -28 50 -15 0 -38 -7 -50 -16z m58 -45 c0 -38
-1 -40 -27 -37 -47 5 -45 78 2 78 23 0 25 -4 25 -41z"/>
<path d="M12946 454 c-19 -18 -21 -75 -4 -92 7 -7 23 -12 36 -12 30 0 24 -22
-9 -32 -19 -5 -17 -6 11 -5 l35 2 3 78 3 77 -30 0 c-16 0 -37 -7 -45 -16z m54
-45 c0 -36 -2 -40 -22 -37 -40 5 -37 78 2 78 17 0 20 -6 20 -41z"/>
<path d="M13719 468 c-1 -2 -3 -13 -4 -25 -2 -17 3 -23 18 -23 20 0 20 1 2 14
-18 13 -18 13 1 24 17 10 17 11 2 12 -10 0 -19 -1 -19 -2z"/>
<path d="M13435 329 c-4 -6 -5 -12 -2 -15 2 -3 7 2 10 11 7 17 1 20 -8 4z"/>
<path d="M12785 320 c-3 -5 1 -10 9 -10 9 0 16 5 16 10 0 6 -4 10 -9 10 -6 0
-13 -4 -16 -10z"/>
<path d="M12820 320 c0 -5 5 -10 10 -10 6 0 10 5 10 10 0 6 -4 10 -10 10 -5 0
-10 -4 -10 -10z"/>
</g>
</svg>
